<svg xmlns="http://www.w3.org/2000/svg" width="8.598" height="17.337" viewBox="0 0 8.598 17.337">
  <defs>
    <style>
      .cls-1 {
        fill: #292d32;
      }
    </style>
  </defs>
  <path id="Path_835" data-name="Path 835" class="cls-1" d="M1404.91,364.67a.742.742,0,0,1-.53-.22.754.754,0,0,1,0-1.06l6.52-6.52a1.231,1.231,0,0,0,0-1.74l-6.52-6.52a.75.75,0,1,1,1.06-1.06l6.52,6.52a2.724,2.724,0,0,1,.8,1.93,2.683,2.683,0,0,1-.8,1.93l-6.52,6.52A.785.785,0,0,1,1404.91,364.67Z" transform="translate(-1404.162 -347.333)"/>
</svg>
